<?xml version="1.0" encoding="UTF-8"?>
<svg id="Logo" xmlns="http://www.w3.org/2000/svg" viewBox="0 0 100 100">
  <defs>
    <style>
      .cls-1 {
        fill: #fff;
      }

      .cls-2 {
        fill: #231f20;
      }
    </style>
  </defs>
  <rect class="cls-2" y="0" width="100" height="100"/>
  <g>
    <path class="cls-1" d="m36.46,44.75l-.62,1.57h-2.5l3.48-9.05h2.57l3.41,9.05h-2.51l-.59-1.57h-3.24Zm1.64-4.68h-.02l-.97,2.88h1.96l-.96-2.88Z"/>
    <path class="cls-1" d="m45.64,43.12h.02l1.9-5.84h1.87l1.78,5.84h.02l1.7-5.84h2.45l-2.89,9.05h-2.4l-1.58-5.24h-.02l-1.78,5.24h-2.39l-2.7-9.05h2.45l1.57,5.84Z"/>
    <path class="cls-1" d="m58.33,46.32h-2.35v-9.05h2.35v9.05Z"/>
    <path class="cls-1" d="m65.77,37.78l-.94,1.82c-.22-.18-.46-.32-.73-.43-.27-.11-.55-.16-.83-.16-.04,0-.08,0-.13,0-.05,0-.1.01-.14.03-.18.04-.35.12-.5.24-.15.12-.23.28-.23.48s.07.35.22.46c.14.12.3.21.47.28.06.02.13.05.19.07s.12.04.17.05l.6.17c.63.19,1.16.47,1.59.83.43.36.64.91.64,1.65v.19c-.02.42-.09.82-.23,1.22-.14.4-.37.74-.71,1.03-.3.26-.65.46-1.03.59-.38.13-.78.21-1.18.24-.06,0-.13,0-.19,0s-.12,0-.17,0c-.57,0-1.12-.09-1.67-.27s-1.05-.43-1.51-.75l1.01-1.91c.3.26.62.49.97.67.35.18.72.28,1.12.28h.1c.26-.02.5-.1.72-.25.22-.15.32-.37.32-.67,0-.22-.09-.4-.27-.54-.18-.14-.38-.24-.61-.32-.1-.03-.19-.06-.29-.09-.1-.03-.18-.05-.26-.08-.02,0-.03-.01-.05-.02-.02,0-.04,0-.05-.02-.71-.2-1.28-.46-1.71-.77-.42-.31-.63-.9-.63-1.75,0-.92.29-1.66.88-2.21s1.33-.83,2.24-.83c.18,0,.37,0,.56.03.19.02.38.05.58.1.3.06.6.15.89.25.29.1.56.22.8.36h0Z"/>
    <path class="cls-1" d="m20.81,56.87v3.85h-1v-8.58h1.8c.63,0,1.09.03,1.39.1s.55.18.77.33c.27.2.49.46.64.8s.23.72.23,1.13-.08.79-.23,1.13-.37.61-.64.8c-.22.16-.48.27-.77.33s-.76.1-1.39.1h-.8Zm0-.93h.52c.88,0,1.46-.1,1.77-.31s.45-.56.45-1.08c0-.55-.16-.93-.47-1.15s-.9-.33-1.75-.33h-.52v2.87Z"/>
    <path class="cls-1" d="m25.81,60.72v-9.08h.9v4.55c.23-.34.51-.6.83-.77s.7-.25,1.12-.25c.63,0,1.13.17,1.48.5s.53.8.53,1.4v3.65h-.94v-3.16c0-.54-.11-.95-.34-1.21s-.58-.4-1.06-.4c-.27,0-.52.05-.75.15s-.41.24-.56.42c-.11.14-.19.3-.24.48s-.07.49-.07.94v2.77h-.91Z"/>
    <path class="cls-1" d="m32.07,58.06c0-.39.07-.77.22-1.12s.36-.66.63-.93.59-.48.94-.62.73-.21,1.12-.21.76.07,1.11.22.67.36.95.63c.28.27.49.58.63.93s.22.72.22,1.11-.07.76-.22,1.1-.36.65-.63.92c-.29.28-.6.5-.96.64s-.72.22-1.1.22-.77-.07-1.12-.22-.67-.36-.95-.63c-.28-.28-.49-.59-.63-.94s-.22-.71-.22-1.11Zm.97,0c0,.57.19,1.05.57,1.44s.84.59,1.38.59.99-.2,1.37-.59.56-.87.56-1.44-.19-1.05-.56-1.44-.83-.59-1.37-.59-1,.2-1.38.59-.57.87-.57,1.44Z"/>
    <path class="cls-1" d="m39.33,60.72v-5.36h.9v.83c.23-.34.51-.6.83-.77s.7-.25,1.12-.25c.63,0,1.13.17,1.48.5s.53.8.53,1.4v3.65h-.94v-3.16c0-.54-.11-.95-.34-1.21s-.58-.4-1.06-.4c-.27,0-.52.05-.75.15s-.41.24-.56.42c-.11.14-.19.3-.24.48s-.07.49-.07.94v2.77h-.91Z"/>
    <path class="cls-1" d="m50.8,58.18h-4.25v.08c0,.57.16,1.04.49,1.39s.76.53,1.28.53c.36,0,.68-.1.97-.29s.54-.49.77-.88l.7.47c-.27.48-.61.85-1.03,1.1s-.9.37-1.45.37c-.82,0-1.48-.27-1.98-.81s-.76-1.25-.76-2.12.25-1.53.75-2.06,1.14-.8,1.93-.8,1.42.25,1.88.76.69,1.2.69,2.08v.18Zm-.98-.74c-.03-.47-.19-.84-.47-1.09s-.67-.38-1.16-.38c-.45,0-.82.13-1.11.4s-.47.63-.52,1.08h3.26Z"/>
    <path class="cls-1" d="m55.81,60.72v-8.58h1.79c.63,0,1.09.03,1.39.1s.56.17.77.33c.27.2.48.46.63.78s.23.67.23,1.05c0,.45-.11.83-.33,1.14s-.53.52-.95.64c.51.08.91.31,1.2.68s.44.85.44,1.43c0,.34-.06.67-.19.98s-.3.58-.52.8c-.24.24-.54.41-.9.5s-.95.15-1.79.15h-1.79Zm1-7.69v2.87h.79c.73,0,1.24-.11,1.54-.32s.45-.57.45-1.07c0-.55-.14-.94-.41-1.16s-.8-.33-1.57-.33h-.79Zm0,3.67v3.13h.79c.54,0,.93-.02,1.17-.06s.43-.12.58-.22c.18-.12.31-.3.42-.52s.15-.47.15-.74c0-.31-.06-.58-.18-.81s-.3-.41-.53-.54c-.14-.08-.29-.14-.47-.18s-.46-.05-.84-.05h-1.09Z"/>
    <path class="cls-1" d="m62.03,58.06c0-.39.07-.77.22-1.12s.36-.66.63-.93.59-.48.94-.62.73-.21,1.12-.21.76.07,1.11.22.67.36.95.63c.28.27.49.58.63.93s.22.72.22,1.11-.07.76-.22,1.1-.36.65-.63.92c-.29.28-.61.5-.96.64s-.72.22-1.1.22-.77-.07-1.12-.22-.67-.36-.95-.63c-.28-.28-.49-.59-.63-.94s-.22-.71-.22-1.11Zm.97,0c0,.57.19,1.05.57,1.44s.84.59,1.38.59.99-.2,1.37-.59.56-.87.56-1.44-.19-1.05-.56-1.44-.83-.59-1.37-.59-1,.2-1.38.59-.56.87-.56,1.44Z"/>
    <path class="cls-1" d="m68.86,58.06c0-.39.07-.77.22-1.12s.36-.66.63-.93.59-.48.94-.62.73-.21,1.12-.21.76.07,1.11.22.67.36.95.63c.28.27.49.58.63.93s.22.72.22,1.11-.07.76-.22,1.1-.36.65-.63.92c-.29.28-.61.5-.96.64s-.72.22-1.1.22-.77-.07-1.12-.22-.67-.36-.95-.63c-.28-.28-.49-.59-.63-.94s-.22-.71-.22-1.11Zm.97,0c0,.57.19,1.05.57,1.44s.84.59,1.38.59.99-.2,1.37-.59.56-.87.56-1.44-.19-1.05-.56-1.44-.83-.59-1.37-.59-1,.2-1.38.59-.56.87-.56,1.44Z"/>
    <path class="cls-1" d="m76.13,60.72v-9.08h.92v6.15l2.58-2.43h1.22l-2.68,2.46,2.92,2.91h-1.28l-2.77-2.83v2.83h-.92Z"/>
  </g>
</svg>